<svg version="1.1" xmlns="http://www.w3.org/2000/svg" xmlns:xlink="http://www.w3.org/1999/xlink" width="110.65516" height="95.87251" viewBox="0,0,110.65516,95.87251"><g transform="translate(-183.27721,-118.39778)"><g data-paper-data="{&quot;isPaintingLayer&quot;:true}" fill-rule="nonzero" stroke="none" stroke-width="0.5" stroke-linecap="butt" stroke-linejoin="miter" stroke-miterlimit="10" stroke-dasharray="" stroke-dashoffset="0" style="mix-blend-mode: normal"><path d="" fill="#9966ff"/><g fill="#000000"><path d="M248.95928,152.19625c0.8202,0.10894 1.60967,0.32074 2.32983,0.68667c5.01896,2.55024 7.03219,12.92535 2.82778,16.84092c-5.26708,4.90524 -15.28019,1.89095 -18.3152,-3.83141c-0.52736,-1.76132 -1.38489,-3.93434 -1.08487,-5.84152c0.73956,-4.70135 6.83497,-8.48625 11.10253,-9.08313l1.44677,-0.01351c0,0 1.39239,0 1.69316,1.242zM242.99042,155.83759c-0.43103,0.36032 -0.92376,0.78461 -1.63524,1.2709c-1.52991,1.04567 -2.83283,1.2957 -3.18265,3.49751c-0.1549,0.97494 0.64345,3.20077 0.88266,3.99615c0.87795,1.97026 1.91715,2.11938 3.95499,2.96061c2.77962,1.14744 6.19463,1.79444 8.7185,-0.39754c2.54238,-2.20804 0.72114,-9.83279 -2.09106,-11.19646c-1.63426,-0.79247 -4.14472,-0.26786 -5.84357,-0.05239c0,0 -0.37818,0.04727 -0.80363,-0.07879z"/><path d="M276.23589,145.31705c1.67626,4.68119 2.47844,9.84093 3.42376,14.58471c0.55426,5.00977 1.23388,10.89809 -0.28233,15.79101c-2.93141,9.45986 -14.10857,18.86981 -23.99932,20.01481c-8.15093,1.80907 -17.56054,1.45268 -25.18647,-1.92122c-2.11917,-0.93757 -4.43764,-1.25101 -6.34415,-2.63416c-3.80176,-2.75812 -6.21359,-6.76468 -8.75808,-10.58141c-5.30334,-9.3303 -5.06186,-19.52862 -2.9106,-29.71855c0.31346,-1.48474 0.19988,-3.0737 0.7397,-4.4919c1.40175,-3.68258 3.76477,-6.77506 6.101,-9.90044c4.0637,-4.6925 10.06248,-7.11571 16.04597,-8.2383c9.65385,-1.81121 17.53661,-3.11359 27.10331,0.07058c6.81482,2.57541 12.30476,7.52036 14.10073,14.66007l0.20617,0.12545c0,0 0.85304,1.27955 -0.23969,2.23935zM254.83197,130.14114c-6.36578,-0.86967 -12.23908,0.23084 -19.12393,1.52095c-5.07153,0.95032 -10.53091,2.93515 -13.9585,6.98785c-2.14721,2.85397 -4.20805,5.56773 -5.54253,8.90833c-0.66579,1.66667 -0.65331,4.24032 -1.05554,6.05025c-1.86739,8.40274 -1.44734,17.53832 2.9151,25.1222c2.29361,3.44041 4.41635,7.04401 7.81155,9.57084c1.62653,1.21053 3.91324,1.47302 5.74721,2.29195c6.98066,3.11712 15.71674,3.32175 23.17896,1.66141c8.63451,-0.9145 18.64312,-9.40292 21.23131,-17.60274c1.36886,-4.33677 0.66085,-9.77771 0.16549,-14.21347c-1.71417,-8.53779 -2.67802,-19.05123 -10.83428,-24.08212c-2.89013,-1.78267 -6.55607,-2.33779 -9.80445,-3.1496c0,0 -1.69774,-0.42443 -1.27331,-2.12218c0.11129,-0.44515 0.31011,-0.74441 0.54292,-0.94367z"/><path d="M250.07795,201.15541c-8.15093,1.80907 -17.56054,1.45268 -25.18647,-1.92122c-2.11917,-0.93757 -4.43764,-1.25101 -6.34415,-2.63416c-3.80176,-2.75812 -6.2136,-6.76468 -8.75809,-10.58141c-5.30334,-9.3303 -5.06186,-19.52862 -2.9106,-29.71855c0.31346,-1.48474 0.19988,-3.0737 0.73971,-4.4919c1.40175,-3.68257 3.76477,-6.77506 6.101,-9.90044c1.93799,-2.23786 4.31607,-3.9596 6.92272,-5.2703c-2.32205,1.66884 -4.35127,3.64961 -5.77221,5.7411c-0.2563,0.37726 -0.45097,0.78334 -0.60597,1.20803c-0.64615,1.32328 -1.00877,2.81036 -1.00877,4.38214c0,0.18759 0.00517,0.37398 0.01537,0.55903c-0.90876,1.40446 -1.72048,2.86865 -2.36352,4.47839c-0.66579,1.66667 -0.65331,4.24032 -1.05554,6.05025c-1.86739,8.40274 -1.44733,17.53832 2.91511,25.1222c2.29361,3.44041 4.41635,7.04401 7.81155,9.57084c1.62653,1.21053 3.91324,1.47301 5.74721,2.29195c6.98066,3.11712 15.71673,3.32175 23.17895,1.66141c4.71471,-0.49935 9.8391,-3.25686 13.94145,-6.99252c0.97012,-0.4119 1.81785,-0.97635 2.46523,-1.70273c0.2152,-0.17157 0.4134,-0.35374 0.59214,-0.54624c0.10462,-0.11265 0.21766,-0.24219 0.33698,-0.38603c0.4802,-0.23567 0.93875,-0.50871 1.37184,-0.81533c1.40434,-0.8384 2.63817,-1.89898 3.46108,-3.12476c0.70599,-0.45694 1.35071,-1.00044 1.91916,-1.61549c-3.53049,8.97663 -14.10448,17.54645 -23.51415,18.63576z"/><path d="M244.33008,206.15541c-8.15093,1.80907 -17.56054,1.45268 -25.18647,-1.92122c-2.11917,-0.93757 -4.43764,-1.25101 -6.34415,-2.63416c-3.80176,-2.75812 -6.21359,-6.76468 -8.75808,-10.58141c-5.30334,-9.3303 -5.06186,-19.52862 -2.9106,-29.71855c0.31346,-1.48474 0.19988,-3.0737 0.7397,-4.4919c1.40175,-3.68257 3.76477,-6.77506 6.101,-9.90044c2.1377,-2.46847 4.81088,-4.30897 7.73562,-5.66251c-0.29808,0.37327 -0.5778,0.75144 -0.83724,1.13331c-0.2563,0.37726 -0.45097,0.78334 -0.60597,1.20803c-0.45934,0.94071 -0.7754,1.9642 -0.91976,3.04205c-0.96786,0.72307 -1.85836,1.54201 -2.64251,2.46918c-2.14721,2.85397 -4.20806,5.56773 -5.54254,8.90833c-0.66579,1.66667 -0.65331,4.24032 -1.05554,6.05025c-1.86739,8.40274 -1.44733,17.53832 2.91511,25.1222c2.29361,3.44041 4.41635,7.04401 7.81155,9.57084c1.62653,1.21053 3.91324,1.47301 5.74721,2.29195c6.98066,3.11712 15.71674,3.32175 23.17896,1.66141c6.44882,-0.68301 13.66412,-5.59082 17.98205,-11.44783c1.6793,-0.38219 3.16737,-1.11963 4.1725,-2.24741c0.2152,-0.17157 0.4134,-0.35374 0.59214,-0.54624c0.10462,-0.11265 0.21766,-0.24219 0.33698,-0.38603c0.34865,-0.17111 0.68588,-0.36191 1.01024,-0.57097c-3.52445,8.98222 -14.10515,17.56121 -23.52019,18.65114z"/></g><path d="M183.27721,120.14778c0,-0.9665 0.7835,-1.75 1.75,-1.75c0.9665,0 1.75,0.7835 1.75,1.75c0,0.9665 -0.7835,1.75 -1.75,1.75c-0.9665,0 -1.75,-0.7835 -1.75,-1.75z" fill="none"/><path d="M290.43237,212.52029c0,-0.9665 0.7835,-1.75 1.75,-1.75c0.9665,0 1.75,0.7835 1.75,1.75c0,0.9665 -0.7835,1.75 -1.75,1.75c-0.9665,0 -1.75,-0.7835 -1.75,-1.75z" fill="none"/></g></g></svg>