<svg version="1.1" xmlns="http://www.w3.org/2000/svg" xmlns:xlink="http://www.w3.org/1999/xlink" width="110.65516" height="95.87251" viewBox="0,0,110.65516,95.87251"><g transform="translate(-183.68273,-129.34669)"><g data-paper-data="{&quot;isPaintingLayer&quot;:true}" fill-rule="nonzero" stroke="none" stroke-width="0.5" stroke-linecap="butt" stroke-linejoin="miter" stroke-miterlimit="10" stroke-dasharray="" stroke-dashoffset="0" style="mix-blend-mode: normal"><path d="" fill="#000000"/><g fill="#1a1b18"><path d="M203.37215,163.11001c0.23982,-1.67576 2.07692,-1.85947 2.07692,-1.85947c25.81986,-2.58181 51.34667,-3.50699 77.29648,-3.50699c1.62398,0.19439 3.75988,-0.61616 4.87194,0.58318c3.82222,4.12221 -1.02543,14.01422 -3.64662,17.58978c-1.18685,1.61898 -4.38746,4.21366 -5.92169,5.44586c-7.71819,6.19877 -19.29011,13.39914 -29.75662,9.34991c-3.77434,-1.46019 -7.26785,-5.68936 -9.89268,-8.61209c-0.32027,-0.35662 -0.61172,-0.70045 -0.87697,-1.03498c-3.30536,5.96727 -11.05037,10.33004 -17.53718,11.27602c-2.69825,0.39349 -8.18149,0.64579 -10.84532,-0.0398c-7.9144,-2.03693 -11.95582,-12.29835 -16.55683,-18.26115c-0.37496,-1.68692 -2.51224,-8.62629 -1.18801,-9.95122c0.98444,-0.98497 5.89791,-0.8527 7.79382,-0.8527c1.40148,0 2.79468,-0.04945 4.18277,-0.12635zM239.47888,172.20276c0.1395,4.72514 1.58987,5.97485 5.30034,9.69243c1.10731,1.10943 3.42968,3.79872 5.17629,4.46455c8.8133,3.35975 18.80611,-3.51979 25.17152,-8.62657c0.85939,-0.68946 4.27603,-3.4468 5.06394,-4.54107c1.59481,-2.2149 2.385,-4.78086 3.15226,-7.29118c0.04696,-0.15366 1.77803,-3.55231 1.19066,-4.08114c-0.46597,-0.41954 -1.19223,0.38879 -1.78834,0.58318c-14.94602,0 -29.74893,0.30783 -44.54948,1.06603c0.04877,0.09106 0.09167,0.18575 0.12818,0.28354l0.97854,2.44635l-0.14312,0.05725l0.0456,0.13683l0.22211,0.23059c0.00176,0.18604 0.00353,0.37208 0.00529,0.55812c0.00223,0.00285 0.00446,0.00572 0.00667,0.00861c0.58107,0.76001 0.02472,1.91323 0.03008,2.86991c0.00417,0.74357 0.01254,1.45318 0.00947,2.14258zM195.48373,167.22997c0.21861,0.10842 0.43346,0.24413 0.49728,0.37593c0.16376,0.3382 0.72599,3.86367 0.82592,4.46634c3.6639,4.36656 6.3745,11.42267 11.12823,14.50138c2.67779,1.73425 5.13843,1.12028 8.23198,1.13072c6.41989,0.02168 15.36785,-3.49091 17.80264,-9.99984c0.45668,-1.22084 0.73518,-2.55865 0.90701,-3.95448c-0.0441,-0.81356 -0.05836,-1.69991 -0.0668,-2.69115c0.01187,-1.00352 0.02374,-2.00703 0.0356,-3.01055l-0.89755,-2.69265c-0.08851,-0.2462 -0.13675,-0.51162 -0.13675,-0.7883c0,-0.30758 0.05961,-0.60124 0.1679,-0.87006c-3.37331,0.19258 -6.74718,0.40927 -10.12329,0.65174c-1.69156,-0.72347 -4.49384,1.05573 -5.93357,1.05696c-2.79727,0.00239 -8.12601,-0.15528 -12.23205,1.00718c-0.75773,-0.47202 -1.6525,-0.74471 -2.61096,-0.74471c-1.78861,0 -3.35541,0.94962 -4.22376,2.37217c-1.15783,-0.15625 -2.2859,-0.41521 -3.37186,-0.81067z"/><path d="M265.93479,197.52424c0,2.3297 -2.3297,2.32971 -2.3297,2.32971l-1.45559,-0.04524c-8.28056,-1.6983 -16.1215,1.77748 -24.29952,2.53241c0,0 -2.32014,0.21093 -2.53106,-2.10921c-0.21092,-2.32014 2.10921,-2.53106 2.10921,-2.53106c8.73891,-0.78123 16.75741,-4.19892 25.63514,-2.46106l0.5418,-0.04524c0,0 2.3297,0 2.3297,2.3297z"/><path d="M196.05639,165.75778c0.61855,-1.08246 1.43038,-1.66772 2.37266,-2.00846c1.31356,-0.47499 2.8806,-0.47477 4.53088,-0.68384c6.4349,-0.81519 13.03901,-1.228 19.41058,-2.23095c2.25168,-0.35444 7.94159,-1.54373 7.94159,1.77367c0,2.96117 -4.30235,2.06992 -5.97311,2.16737c-6.69747,0.39061 -13.5624,0.77094 -20.15664,2.18191c-1.28035,0.27396 -6.36115,1.88872 -7.12323,0.55507z"/></g><path d="M183.68273,131.09669c0,-0.9665 0.7835,-1.75 1.75,-1.75c0.9665,0 1.75,0.7835 1.75,1.75c0,0.9665 -0.7835,1.75 -1.75,1.75c-0.9665,0 -1.75,-0.7835 -1.75,-1.75z" fill="none"/><path d="M290.83789,223.4692c0,-0.9665 0.7835,-1.75 1.75,-1.75c0.9665,0 1.75,0.7835 1.75,1.75c0,0.9665 -0.7835,1.75 -1.75,1.75c-0.9665,0 -1.75,-0.7835 -1.75,-1.75z" fill="none"/></g></g></svg>