<svg width="44" height="86" viewBox="0 0 44 86" fill="none" xmlns="http://www.w3.org/2000/svg">
<g filter="url(#filter0_d_56_366)">
<path d="M32.3361 2C32.3361 6.38184 33.436 10.6841 33.5131 15.078C33.6433 22.4996 34.1016 29.8742 34.1016 37.3105C34.1016 47.8819 34.1016 58.4532 34.1016 69.0246C34.1016 72.8728 30.6182 72.501 27.3011 73.5038C22.3221 75.0091 16.6832 77.1094 11.3786 76.0213C5.35721 74.7861 0.455952 68.3714 2.45292 62.1587C3.90452 57.6426 8.83751 56.4693 12.9153 55.6851C15.282 55.2299 17.4411 54.9658 19.8466 54.9658C22.4866 54.9658 22.6882 55.5521 24.6528 57.0256C27.0044 58.7893 28.0255 61.9927 30.2763 63.7934C31.9451 65.1285 31.5434 68.6937 33.5131 69.6785" stroke="#EFF6E0" stroke-width="3" stroke-linecap="round"/>
</g>
<defs>
<filter id="filter0_d_56_366" x="0.49939" y="0.5" width="43.1022" height="85.3223" filterUnits="userSpaceOnUse" color-interpolation-filters="sRGB">
<feFlood flood-opacity="0" result="BackgroundImageFix"/>
<feColorMatrix in="SourceAlpha" type="matrix" values="0 0 0 0 0 0 0 0 0 0 0 0 0 0 0 0 0 0 127 0" result="hardAlpha"/>
<feOffset dx="4" dy="4"/>
<feGaussianBlur stdDeviation="2"/>
<feComposite in2="hardAlpha" operator="out"/>
<feColorMatrix type="matrix" values="0 0 0 0 0 0 0 0 0 0 0 0 0 0 0 0 0 0 0.25 0"/>
<feBlend mode="normal" in2="BackgroundImageFix" result="effect1_dropShadow_56_366"/>
<feBlend mode="normal" in="SourceGraphic" in2="effect1_dropShadow_56_366" result="shape"/>
</filter>
</defs>
</svg>
